<svg version="1" xmlns="http://www.w3.org/2000/svg" width="450.667" height="450.667" viewBox="0 0 338.000000 338.000000"><path d="M0 169v159h338V10H0v159zM173.5 63c2.8.5 7.8 1.3 11.3 1.8 7.8 1.3 26.2 9.4 32.2 14.1 9.9 7.9 19.3 19.1 21 25 2.3 8.2-6 28.6-17.7 43.1-7.6 9.5-21 21.5-26.3 23.7-6.8 2.8-16 8.7-16 10.3 0 .8 3.3 5.5 7.3 10.4 3.9 4.9 8.3 10.3 9.7 12.1 1.4 1.8 5.7 7 9.6 11.6 3.8 4.6 8.5 10.5 10.2 13.1 1.8 2.6 8 9.6 13.8 15.5 5.9 5.9 11.5 12.1 12.5 13.8 4 6.4 1.4 16.8-5.1 20.3-3.2 1.7-15 .9-24-1.6-6.7-1.9-18.2-9.3-26.5-17.1-2.2-2-7.2-6.3-11-9.3-3.9-3.1-8.5-7.2-10.2-9.1-3.7-4.1-10.1-14.4-13.5-21.9-2.9-6.2-6.3-10.6-7.4-9.6-.4.4-1.1 4.3-1.5 8.5-1.1 10.6-2.8 22.3-3.3 23.2-.3.4-.7 4.8-1 9.7-1.1 17.4-3.7 26.3-8.8 29.6-2.4 1.6-6.9 2.2-14.2 1.9-3.4-.1-4.6-.9-10-6.6-8.5-8.8-10.6-13.4-11-23.7-.2-4.6 0-11.5.6-15.3 1.5-11.5 2.9-24.4 3.8-35.5 1.1-14.5 3.9-37.9 7.1-59.5 2-14.1 2.9-28.8 1.7-30.2-.6-.8-3.5-2.6-6.4-4-2.8-1.4-6.7-3.9-8.4-5.5-3-2.7-3.2-3.2-2.8-8.4.4-4.3 1.1-6.1 3.3-8.4 1.6-1.7 3.6-3 4.6-3 .9 0 5.2-1.8 9.6-4.1 6.6-3.4 18.1-8.2 28.3-11.9 9.2-3.3 28.1-4.8 38.5-3z"/><path d="M162.6 104.4l-7.9 2.2-1.3 5.4c-1.9 7.6-4.2 36.9-3 37.3.6.2 4.6-2.3 9-5.4 4.5-3.2 10.1-6.8 12.6-8.1 11.1-5.5 15.6-9.4 18.9-16.2 1.7-3.6 3.4-8.5 3.7-10.8l.6-4.3-4.6-1.3c-6.9-1.8-18.9-1.3-28 1.2zM95 240.9c0 1.1 2.6 2.2 3.4 1.4 1.2-1.2.5-2.3-1.4-2.3-1.1 0-2 .4-2 .9z"/></svg>